# xmcd
#
# Track frame offsets:
#	150
#	64689
#	103931
#	124386
#	151469
#	183476
#	211412
#
# Disc length: 3361 seconds
#
# Revision: 0
# Processed by: cddbd v1.5.2PL0 Copyright (c) Steve Scherf et al.
# Submitted via: audiograbber 1.83.01
#
DISCID=660d1f07
DTITLE=Grateful Dead - 92-05-24 Shoreline Amphitheatre, Mountain View CA
DYEAR=1900
DGENRE=
TTITLE0=Shakedown Street
TTITLE1=The Same Thing
TTITLE2=Dire Wolf
TTITLE3=When I Paint My Masterpiece
TTITLE4=Loser
TTITLE5=It's All Over Now
TTITLE6=Foolish Heart
EXTD=
EXTT0=
EXTT1=
EXTT2=
EXTT3=
EXTT4=
EXTT5=
EXTT6=
PLAYORDER=
